<svg xmlns="http://www.w3.org/2000/svg" viewBox="0 0 512 512"><defs><radialGradient id="d" cx="50%" cy="42%" r="60%"><stop offset="0" stop-color="#3f86ff"/><stop offset="1" stop-color="#0b1f5c"/></radialGradient><linearGradient id="c" x1="0" y1="0" x2="1" y2="1"><stop offset="0" stop-color="#f2f3f7"/><stop offset=".5" stop-color="#8e929c"/><stop offset="1" stop-color="#d8dbe2"/></linearGradient><linearGradient id="b" x1="0" x2="1"><stop offset="0" stop-color="#8d96a3"/><stop offset=".4" stop-color="#fff"/><stop offset="1" stop-color="#5f6772"/></linearGradient></defs>
<rect width="512" height="512" rx="112" fill="#0a0508"/><circle cx="256" cy="256" r="220" fill="url(#c)"/><circle cx="256" cy="256" r="200" fill="#c81e24"/><circle cx="256" cy="256" r="170" fill="url(#d)"/>
<path d="M150 250 C140 170 190 110 256 106 C322 110 372 170 362 250 C340 200 300 180 256 180 C212 180 172 200 150 250Z" fill="#e2501f"/><path d="M176 236 C176 190 212 170 256 170 C300 170 336 190 336 236 C336 300 300 336 256 340 C212 336 176 300 176 236Z" fill="#f1b38d"/>
<path d="M170 210 C200 150 312 150 342 210 C320 180 290 172 256 176 C222 172 192 180 170 210Z" fill="#d6441a"/><ellipse cx="222" cy="244" rx="16" ry="12" fill="#fff"/><ellipse cx="290" cy="244" rx="16" ry="12" fill="#fff"/><circle cx="224" cy="246" r="8" fill="#2468d8"/><circle cx="288" cy="246" r="8" fill="#2468d8"/><circle cx="224" cy="246" r="3" fill="#000"/><circle cx="288" cy="246" r="3" fill="#000"/>
<path d="M224 296 Q256 316 288 296" fill="none" stroke="#8a2a20" stroke-width="6" stroke-linecap="round"/><g fill="#9c4a2c"><circle cx="210" cy="272" r="3"/><circle cx="222" cy="280" r="3"/><circle cx="300" cy="272" r="3"/><circle cx="290" cy="280" r="3"/></g>
<path d="M250 262 L250 120 L256 104 L262 150 L262 262Z" fill="url(#b)" stroke="#333" stroke-width="2" transform="rotate(35 256 256)"/><circle cx="256" cy="256" r="12" fill="#d4a82a"/></svg>
