<svg xmlns="http://www.w3.org/2000/svg" viewBox="0 0 512 512"><defs>
<linearGradient id="c" x1="0" y1="0" x2="1" y2="1"><stop offset="0" stop-color="#fbfcff"/><stop offset=".35" stop-color="#7d818a"/><stop offset=".6" stop-color="#eef0f4"/><stop offset="1" stop-color="#4a4d54"/></linearGradient>
<linearGradient id="z" x1="0" y1="0" x2="1" y2="1"><stop offset="0" stop-color="#c8262c"/><stop offset="1" stop-color="#6d0a0f"/></linearGradient>
<radialGradient id="d" cx="45%" cy="35%" r="75%"><stop offset="0" stop-color="#4a7fc4"/><stop offset=".55" stop-color="#2b5a9c"/><stop offset="1" stop-color="#152f5c"/></radialGradient>
<pattern id="t" width="6" height="6" patternUnits="userSpaceOnUse" patternTransform="rotate(-38)"><rect width="6" height="2.4" fill="#fff" opacity=".12"/></pattern>
<linearGradient id="b" x1="0" x2="1"><stop offset="0" stop-color="#2c323b"/><stop offset=".12" stop-color="#e9eef5"/><stop offset=".36" stop-color="#3a414b"/><stop offset=".5" stop-color="#fff"/><stop offset=".8" stop-color="#f4f7fb"/><stop offset="1" stop-color="#434a55"/></linearGradient>
<radialGradient id="br" cx="38%" cy="32%" r="70%"><stop offset="0" stop-color="#fff6c8"/><stop offset=".4" stop-color="#e6bf4c"/><stop offset="1" stop-color="#5e4104"/></radialGradient>
<symbol id="k" viewBox="0 0 40 240"><path d="M12 150 L12 30 Q12 8 18 0 Q28 40 28 90 L28 150Z" fill="url(#b)" stroke="#1e232a" stroke-width="1"/><rect x="6" y="150" width="28" height="12" rx="2" fill="#c9ced6"/><path d="M9 162h22v58a11 11 0 0 1-22 0z" fill="#111"/><circle cx="20" cy="185" r="3.5" fill="#dfe3ea"/><circle cx="20" cy="205" r="3.5" fill="#dfe3ea"/></symbol></defs>
<rect width="512" height="512" rx="112" fill="#0d0e12"/>
<circle cx="256" cy="256" r="228" fill="url(#c)"/><circle cx="256" cy="256" r="216" fill="url(#z)"/>
<g stroke="#fff3e2" stroke-width="5">
<line x1="256" y1="48" x2="256" y2="62"/><line x1="464" y1="256" x2="450" y2="256"/><line x1="256" y1="464" x2="256" y2="450"/><line x1="48" y1="256" x2="62" y2="256"/></g>
<circle cx="256" cy="256" r="186" fill="#0b0b0d"/>
<g fill="none" stroke-width="4"><circle cx="256" cy="256" r="182" stroke="#d8262c"/><circle cx="256" cy="256" r="178" stroke="#f3efe6"/><circle cx="256" cy="256" r="174" stroke="#2a64c8"/><circle cx="256" cy="256" r="170" stroke="#f2c21b"/><circle cx="256" cy="256" r="166" stroke="#23a04a"/></g>
<circle cx="256" cy="256" r="164" fill="url(#d)"/><circle cx="256" cy="256" r="164" fill="url(#t)"/>
<circle cx="256" cy="256" r="140" fill="none" stroke="#f0a23a" stroke-width="3" stroke-dasharray="10 6"/>
<g fill="url(#br)"><circle cx="256" cy="130" r="11"/><circle cx="382" cy="256" r="11"/><circle cx="256" cy="382" r="11"/><circle cx="130" cy="256" r="11"/></g>
<use href="#k" x="236" y="80" width="40" height="240" transform="rotate(-60 256 256)"/>
<use href="#k" x="236" y="54" width="40" height="266" transform="rotate(56 256 256)"/>
<circle cx="256" cy="256" r="16" fill="url(#br)" stroke="#5e4104" stroke-width="2"/>
</svg>
